<svg width="21" height="21" viewBox="0 0 21 21" fill="none" xmlns="http://www.w3.org/2000/svg">
    <path d="M16.7475 7.15742L10.5 13.2474L4.25253 7.15742C4.14092 7.04838 3.99107 6.98733 3.83503 6.98733C3.679 6.98733 3.52915 7.04838 3.41753 7.15742C3.36349 7.21037 3.32055 7.27358 3.29124 7.34334C3.26192 7.41309 3.24683 7.488 3.24683 7.56367C3.24683 7.63933 3.26192 7.71424 3.29124 7.78399C3.32055 7.85375 3.36349 7.91696 3.41753 7.96992L10.0638 14.4499C10.1805 14.5637 10.337 14.6274 10.5 14.6274C10.663 14.6274 10.8196 14.5637 10.9363 14.4499L17.5825 7.97117C17.637 7.91817 17.6802 7.85481 17.7098 7.78482C17.7393 7.71483 17.7545 7.63963 17.7545 7.56367C17.7545 7.4877 17.7393 7.4125 17.7098 7.34251C17.6802 7.27252 17.637 7.20916 17.5825 7.15617C17.4709 7.04713 17.3211 6.98608 17.165 6.98608C17.009 6.98608 16.8592 7.04713 16.7475 7.15617V7.15742Z" fill="#6B0E0E" style="fill:#6B0E0E;fill:color(display-p3 0.4196 0.0549 0.0549);fill-opacity:1;"/>
</svg>
