<svg width="21" height="21" viewBox="0 0 21 21" fill="none" xmlns="http://www.w3.org/2000/svg">
    <path d="M4.25247 13.8426L10.5 7.75258L16.7475 13.8426C16.8591 13.9516 17.0089 14.0127 17.165 14.0127C17.321 14.0127 17.4708 13.9516 17.5825 13.8426C17.6365 13.7896 17.6795 13.7264 17.7088 13.6567C17.7381 13.5869 17.7532 13.512 17.7532 13.4363C17.7532 13.3607 17.7381 13.2858 17.7088 13.216C17.6795 13.1462 17.6365 13.083 17.5825 13.0301L10.9362 6.55008C10.8195 6.43632 10.663 6.37265 10.5 6.37265C10.337 6.37265 10.1804 6.43632 10.0637 6.55008L3.41747 13.0288C3.36304 13.0818 3.31977 13.1452 3.29024 13.2152C3.2607 13.2852 3.24548 13.3604 3.24548 13.4363C3.24548 13.5123 3.2607 13.5875 3.29024 13.6575C3.31977 13.7275 3.36304 13.7908 3.41747 13.8438C3.52908 13.9529 3.67893 14.0139 3.83497 14.0139C3.991 14.0139 4.14085 13.9529 4.25247 13.8438V13.8426Z" fill="#6B0E0E" style="fill:#6B0E0E;fill:color(display-p3 0.4196 0.0549 0.0549);fill-opacity:1;"/>
</svg>
