<svg width="48" height="51" viewBox="0 0 48 51" fill="none" xmlns="http://www.w3.org/2000/svg">
    <g clip-path="url(#clip0_227_337)">
        <path d="M20.8133 11.815L8 25.5L20.8133 39.185C20.9291 39.3465 21.0761 39.4796 21.2444 39.5755C21.4128 39.6713 21.5986 39.7276 21.7892 39.7405C21.9798 39.7535 22.1708 39.7227 22.3493 39.6504C22.5278 39.578 22.6895 39.4658 22.8236 39.3213C22.9577 39.1768 23.061 39.0033 23.1266 38.8127C23.1921 38.622 23.2183 38.4187 23.2034 38.2164C23.1885 38.014 23.1329 37.8174 23.0403 37.6399C22.9477 37.4624 22.8203 37.3082 22.6667 37.1875L13.08 26.9167H38.5867C38.9403 26.9167 39.2794 26.7674 39.5295 26.5018C39.7795 26.2361 39.92 25.8757 39.92 25.5C39.92 25.1243 39.7795 24.764 39.5295 24.4983C39.2794 24.2326 38.9403 24.0834 38.5867 24.0834H13.08L22.6667 13.8125C22.916 13.5458 23.0553 13.1847 23.0541 12.8088C23.0528 12.4328 22.9111 12.0728 22.66 11.8079C22.4089 11.543 22.0691 11.395 21.7153 11.3963C21.3615 11.3976 21.0226 11.5483 20.7733 11.815H20.8133Z" fill="#FFFEFE" style="fill:#FFFEFE;fill:color(display-p3 1.0000 0.9958 0.9958);fill-opacity:1;"/>
    </g>
    <defs>
        <clipPath id="clip0_227_337">
            <rect width="51" height="48" fill="white" style="fill:white;fill-opacity:1;" transform="matrix(0 -1 1 0 0 51)"/>
        </clipPath>
    </defs>
</svg>
