<svg width="33" height="33" viewBox="0 0 33 33" fill="none" xmlns="http://www.w3.org/2000/svg">
    <g clip-path="url(#clip0_252_13021)">
        <path d="M16.872 2.726C16.6332 2.63031 16.3668 2.63031 16.128 2.726L4.192 7.5L9 9.422L21.308 4.5L16.872 2.726ZM24 5.578L11.692 10.5L16.5 12.422L28.808 7.5L24 5.578ZM30.5 8.978L17.5 14.178V30.022L30.5 24.822V8.978ZM15.5 30.024V14.176L2.5 8.978V24.824L15.5 30.024ZM15.386 0.868001C16.1011 0.581999 16.8989 0.581999 17.614 0.868001L31.872 6.572C32.0574 6.64629 32.2163 6.77438 32.3282 6.93978C32.4401 7.10517 32.5 7.30029 32.5 7.5V24.824C32.4997 25.2236 32.3798 25.614 32.1555 25.9449C31.9313 26.2757 31.6131 26.5317 31.242 26.68L16.872 32.428C16.6332 32.5237 16.3668 32.5237 16.128 32.428L1.76 26.68C1.3885 26.532 1.06988 26.2761 0.845284 25.9453C0.620683 25.6144 0.500413 25.2239 0.5 24.824V7.5C0.500046 7.30029 0.559887 7.10517 0.671814 6.93978C0.783741 6.77438 0.942625 6.64629 1.128 6.572L15.386 0.868001Z" fill="#FFFEFE" style="fill:#FFFEFE;fill:color(display-p3 1.0000 0.9958 0.9958);fill-opacity:1;"/>
    </g>
    <defs>
        <clipPath id="clip0_252_13021">
            <rect width="32" height="32" fill="white" style="fill:white;fill-opacity:1;" transform="translate(0.5 0.5)"/>
        </clipPath>
    </defs>
</svg>
