<svg width="22" height="21" viewBox="0 0 22 21" fill="none" xmlns="http://www.w3.org/2000/svg">
    <path d="M13 20.25H9C5.229 20.25 3.343 20.25 2.172 19.078C1 17.907 1 16.021 1 12.25V10.25C1 6.479 1 4.593 2.172 3.422C3.343 2.25 5.229 2.25 9 2.25H13C16.771 2.25 18.657 2.25 19.828 3.422C21 4.593 21 6.479 21 10.25V12.25C21 16.021 21 17.907 19.828 19.078C19.175 19.732 18.3 20.021 17 20.148M6 2.25V0.75M16 2.25V0.75M20.5 7.25H9.75M1 7.25H4.875" stroke="black" style="stroke:black;stroke-opacity:1;" stroke-width="1.5" stroke-linecap="round"/>
    <path d="M17 15.25C17 15.5152 16.8946 15.7696 16.7071 15.9571C16.5196 16.1446 16.2652 16.25 16 16.25C15.7348 16.25 15.4804 16.1446 15.2929 15.9571C15.1054 15.7696 15 15.5152 15 15.25C15 14.9848 15.1054 14.7304 15.2929 14.5429C15.4804 14.3554 15.7348 14.25 16 14.25C16.2652 14.25 16.5196 14.3554 16.7071 14.5429C16.8946 14.7304 17 14.9848 17 15.25ZM17 11.25C17 11.5152 16.8946 11.7696 16.7071 11.9571C16.5196 12.1446 16.2652 12.25 16 12.25C15.7348 12.25 15.4804 12.1446 15.2929 11.9571C15.1054 11.7696 15 11.5152 15 11.25C15 10.9848 15.1054 10.7304 15.2929 10.5429C15.4804 10.3554 15.7348 10.25 16 10.25C16.2652 10.25 16.5196 10.3554 16.7071 10.5429C16.8946 10.7304 17 10.9848 17 11.25ZM12 15.25C12 15.5152 11.8946 15.7696 11.7071 15.9571C11.5196 16.1446 11.2652 16.25 11 16.25C10.7348 16.25 10.4804 16.1446 10.2929 15.9571C10.1054 15.7696 10 15.5152 10 15.25C10 14.9848 10.1054 14.7304 10.2929 14.5429C10.4804 14.3554 10.7348 14.25 11 14.25C11.2652 14.25 11.5196 14.3554 11.7071 14.5429C11.8946 14.7304 12 14.9848 12 15.25ZM12 11.25C12 11.5152 11.8946 11.7696 11.7071 11.9571C11.5196 12.1446 11.2652 12.25 11 12.25C10.7348 12.25 10.4804 12.1446 10.2929 11.9571C10.1054 11.7696 10 11.5152 10 11.25C10 10.9848 10.1054 10.7304 10.2929 10.5429C10.4804 10.3554 10.7348 10.25 11 10.25C11.2652 10.25 11.5196 10.3554 11.7071 10.5429C11.8946 10.7304 12 10.9848 12 11.25ZM7 15.25C7 15.5152 6.89464 15.7696 6.70711 15.9571C6.51957 16.1446 6.26522 16.25 6 16.25C5.73478 16.25 5.48043 16.1446 5.29289 15.9571C5.10536 15.7696 5 15.5152 5 15.25C5 14.9848 5.10536 14.7304 5.29289 14.5429C5.48043 14.3554 5.73478 14.25 6 14.25C6.26522 14.25 6.51957 14.3554 6.70711 14.5429C6.89464 14.7304 7 14.9848 7 15.25ZM7 11.25C7 11.5152 6.89464 11.7696 6.70711 11.9571C6.51957 12.1446 6.26522 12.25 6 12.25C5.73478 12.25 5.48043 12.1446 5.29289 11.9571C5.10536 11.7696 5 11.5152 5 11.25C5 10.9848 5.10536 10.7304 5.29289 10.5429C5.48043 10.3554 5.73478 10.25 6 10.25C6.26522 10.25 6.51957 10.3554 6.70711 10.5429C6.89464 10.7304 7 10.9848 7 11.25Z" fill="black" style="fill:black;fill-opacity:1;"/>
</svg>
