<svg width="33" height="33" viewBox="0 0 33 33" fill="none" xmlns="http://www.w3.org/2000/svg">
    <g clip-path="url(#clip0_252_13014)">
        <path fill-rule="evenodd" clip-rule="evenodd" d="M22.5 30.5C24.6217 30.5 26.6566 29.6571 28.1569 28.1569C29.6571 26.6566 30.5 24.6217 30.5 22.5C30.5 20.3783 29.6571 18.3434 28.1569 16.8431C26.6566 15.3429 24.6217 14.5 22.5 14.5C20.3783 14.5 18.3434 15.3429 16.8431 16.8431C15.3429 18.3434 14.5 20.3783 14.5 22.5C14.5 24.6217 15.3429 26.6566 16.8431 28.1569C18.3434 29.6571 20.3783 30.5 22.5 30.5ZM32.5 22.5C32.5 25.1522 31.4464 27.6957 29.5711 29.5711C27.6957 31.4464 25.1522 32.5 22.5 32.5C19.8478 32.5 17.3043 31.4464 15.4289 29.5711C13.5536 27.6957 12.5 25.1522 12.5 22.5C12.5 19.8478 13.5536 17.3043 15.4289 15.4289C17.3043 13.5536 19.8478 12.5 22.5 12.5C25.1522 12.5 27.6957 13.5536 29.5711 15.4289C31.4464 17.3043 32.5 19.8478 32.5 22.5Z" fill="#FFFEFE" style="fill:#FFFEFE;fill:color(display-p3 1.0000 0.9958 0.9958);fill-opacity:1;"/>
        <path d="M19.376 24.388C19.47 25.58 20.412 26.508 22.102 26.62V27.5H22.852V26.614C24.602 26.492 25.624 25.556 25.624 24.2C25.624 22.964 24.844 22.328 23.444 22L22.852 21.86V19.46C23.604 19.546 24.08 19.956 24.194 20.524H25.51C25.416 19.374 24.43 18.476 22.852 18.378V17.5H22.102V18.4C20.608 18.546 19.592 19.444 19.592 20.716C19.592 21.84 20.348 22.556 21.606 22.848L22.102 22.97V25.514C21.334 25.398 20.824 24.974 20.71 24.388H19.376ZM22.096 21.68C21.358 21.51 20.958 21.16 20.958 20.636C20.958 20.048 21.39 19.608 22.102 19.48V21.68H22.096ZM22.96 23.172C23.858 23.38 24.27 23.716 24.27 24.31C24.27 24.988 23.756 25.452 22.852 25.538V23.148L22.96 23.172Z" fill="#FFFEFE" style="fill:#FFFEFE;fill:color(display-p3 1.0000 0.9958 0.9958);fill-opacity:1;"/>
        <path d="M2.5 0.5C1.96957 0.5 1.46086 0.710714 1.08579 1.08579C0.710714 1.46086 0.5 1.96957 0.5 2.5L0.5 18.5C0.5 19.0304 0.710714 19.5391 1.08579 19.9142C1.46086 20.2893 1.96957 20.5 2.5 20.5H10.666C10.7833 19.8107 10.9553 19.144 11.182 18.5H6.5C6.5 17.4391 6.07857 16.4217 5.32843 15.6716C4.57828 14.9214 3.56087 14.5 2.5 14.5V6.5C3.56087 6.5 4.57828 6.07857 5.32843 5.32843C6.07857 4.57828 6.5 3.56087 6.5 2.5H26.5C26.5 3.56087 26.9214 4.57828 27.6716 5.32843C28.4217 6.07857 29.4391 6.5 30.5 6.5V13.556C31.26 14.236 31.934 15.012 32.5 15.864V2.5C32.5 1.96957 32.2893 1.46086 31.9142 1.08579C31.5391 0.710714 31.0304 0.5 30.5 0.5H2.5Z" fill="#FFFEFE" style="fill:#FFFEFE;fill:color(display-p3 1.0000 0.9958 0.9958);fill-opacity:1;"/>
        <path d="M20.496 10.666L20.5 10.5C20.4996 9.81119 20.3213 9.13415 19.9824 8.53446C19.6435 7.93477 19.1555 7.43276 18.5657 7.07704C17.9758 6.72132 17.3041 6.52395 16.6156 6.50405C15.927 6.48415 15.245 6.64239 14.6356 6.96344C14.0262 7.2845 13.51 7.75749 13.1371 8.3366C12.7641 8.91571 12.547 9.58132 12.5068 10.269C12.4666 10.9566 12.6047 11.643 12.9076 12.2616C13.2106 12.8802 13.6681 13.4101 14.236 13.8C15.9648 12.1564 18.1442 11.0652 20.496 10.666Z" fill="#FFFEFE" style="fill:#FFFEFE;fill:color(display-p3 1.0000 0.9958 0.9958);fill-opacity:1;"/>
    </g>
    <defs>
        <clipPath id="clip0_252_13014">
            <rect width="32" height="32" fill="white" style="fill:white;fill-opacity:1;" transform="translate(0.5 0.5)"/>
        </clipPath>
    </defs>
</svg>
