<svg width="56" height="56" viewBox="0 0 56 56" fill="none" xmlns="http://www.w3.org/2000/svg">
    <path d="M44.678 42.8225C44.8069 42.9426 44.9103 43.0875 44.9821 43.2485C45.0538 43.4095 45.0924 43.5833 45.0955 43.7596C45.0986 43.9358 45.0662 44.1108 45.0002 44.2743C44.9342 44.4377 44.8359 44.5862 44.7113 44.7108C44.5866 44.8354 44.4382 44.9337 44.2748 44.9997C44.1113 45.0657 43.9363 45.0981 43.7601 45.095C43.5838 45.0919 43.41 45.0533 43.249 44.9816C43.088 44.9099 42.9431 44.8064 42.823 44.6775L28.0005 29.8572L13.178 44.6775C12.9292 44.9093 12.6001 45.0355 12.26 45.0295C11.92 45.0235 11.5956 44.8858 11.3551 44.6453C11.1147 44.4048 10.9769 44.0804 10.9709 43.7404C10.9649 43.4004 11.0911 43.0713 11.323 42.8225L26.1433 28L11.323 13.1775C11.0911 12.9287 10.9649 12.5996 10.9709 12.2596C10.9769 11.9195 11.1147 11.5951 11.3551 11.3546C11.5956 11.1142 11.92 10.9764 12.26 10.9704C12.6001 10.9644 12.9292 11.0906 13.178 11.3225L28.0005 26.1428L42.823 11.3225C43.0718 11.0906 43.4009 10.9644 43.7409 10.9704C44.0809 10.9764 44.4053 11.1142 44.6458 11.3546C44.8863 11.5951 45.024 11.9195 45.03 12.2596C45.036 12.5996 44.9098 12.9287 44.678 13.1775L29.8577 28L44.678 42.8225Z" fill="#FFFEFE" style="fill:#FFFEFE;fill:color(display-p3 1.0000 0.9958 0.9958);fill-opacity:1;"/>
</svg>
