<svg width="22" height="24" viewBox="0 0 22 24" fill="none" xmlns="http://www.w3.org/2000/svg">
    <path d="M1.2746 22.1635L1.27834 22.1674C1.37747 22.2718 1.49536 22.3547 1.62523 22.4113C1.75511 22.4679 1.8944 22.4971 2.03511 22.4972C2.1535 22.4971 2.27108 22.4767 2.38315 22.4368L8.48498 20.2728L20.194 8.03163C20.9098 7.28322 21.3119 6.2682 21.3118 5.20984C21.3118 4.15149 20.9096 3.1365 20.1937 2.38816C19.4779 1.63982 18.507 1.21944 17.4946 1.21948C16.4823 1.21953 15.5114 1.64 14.7956 2.38841L3.08664 14.6296L1.01692 21.0086C0.951724 21.207 0.941317 21.4205 0.986894 21.6248C1.03247 21.8291 1.13218 22.0158 1.2746 22.1635ZM15.768 3.40485C16.2265 2.9291 16.8467 2.6627 17.4928 2.664C18.1388 2.6653 18.7581 2.93418 19.2149 3.41177C19.6717 3.88937 19.9289 4.53675 19.9301 5.21216C19.9313 5.88756 19.6765 6.53596 19.2214 7.01536L17.6817 8.62509L14.2281 5.01458L15.768 3.40485ZM4.2859 15.4088L13.2559 6.03103L16.7094 9.64154L7.73938 19.0192L2.51292 20.8728L4.2859 15.4088Z" fill="black" style="fill:black;fill-opacity:1;"/>
</svg>
