<svg width="32" height="33" viewBox="0 0 32 33" fill="none" xmlns="http://www.w3.org/2000/svg">
    <g clip-path="url(#clip0_252_13023)">
        <path d="M16 30.5C12.287 30.5 8.72601 29.025 6.1005 26.3995C3.475 23.774 2 20.213 2 16.5C2 12.787 3.475 9.22601 6.1005 6.6005C8.72601 3.975 12.287 2.5 16 2.5C19.713 2.5 23.274 3.975 25.8995 6.6005C28.525 9.22601 30 12.787 30 16.5C30 20.213 28.525 23.774 25.8995 26.3995C23.274 29.025 19.713 30.5 16 30.5ZM16 32.5C20.2435 32.5 24.3131 30.8143 27.3137 27.8137C30.3143 24.8131 32 20.7435 32 16.5C32 12.2565 30.3143 8.18687 27.3137 5.18629C24.3131 2.18571 20.2435 0.5 16 0.5C11.7565 0.5 7.68687 2.18571 4.68629 5.18629C1.68571 8.18687 0 12.2565 0 16.5C0 20.7435 1.68571 24.8131 4.68629 27.8137C7.68687 30.8143 11.7565 32.5 16 32.5Z" fill="#FFFEFE" style="fill:#FFFEFE;fill:color(display-p3 1.0000 0.9958 0.9958);fill-opacity:1;"/>
        <path d="M16 8.5C16.2652 8.5 16.5196 8.60536 16.7071 8.79289C16.8946 8.98043 17 9.23478 17 9.5V15.5H23C23.2652 15.5 23.5196 15.6054 23.7071 15.7929C23.8946 15.9804 24 16.2348 24 16.5C24 16.7652 23.8946 17.0196 23.7071 17.2071C23.5196 17.3946 23.2652 17.5 23 17.5H17V23.5C17 23.7652 16.8946 24.0196 16.7071 24.2071C16.5196 24.3946 16.2652 24.5 16 24.5C15.7348 24.5 15.4804 24.3946 15.2929 24.2071C15.1054 24.0196 15 23.7652 15 23.5V17.5H9C8.73478 17.5 8.48043 17.3946 8.29289 17.2071C8.10536 17.0196 8 16.7652 8 16.5C8 16.2348 8.10536 15.9804 8.29289 15.7929C8.48043 15.6054 8.73478 15.5 9 15.5H15V9.5C15 9.23478 15.1054 8.98043 15.2929 8.79289C15.4804 8.60536 15.7348 8.5 16 8.5Z" fill="#FFFEFE" style="fill:#FFFEFE;fill:color(display-p3 1.0000 0.9958 0.9958);fill-opacity:1;"/>
    </g>
    <defs>
        <clipPath id="clip0_252_13023">
            <rect width="32" height="32" fill="white" style="fill:white;fill-opacity:1;" transform="translate(0 0.5)"/>
        </clipPath>
    </defs>
</svg>
