<svg width="32" height="33" viewBox="0 0 32 33" fill="none" xmlns="http://www.w3.org/2000/svg">
    <g clip-path="url(#clip0_252_13026)">
        <path d="M16 10.008C15.1475 10.008 14.3033 10.1759 13.5156 10.5022C12.728 10.8284 12.0123 11.3066 11.4095 11.9095C10.8066 12.5123 10.3284 13.228 10.0022 14.0156C9.67592 14.8033 9.508 15.6475 9.508 16.5C9.508 17.3525 9.67592 18.1967 10.0022 18.9844C10.3284 19.772 10.8066 20.4877 11.4095 21.0905C12.0123 21.6934 12.728 22.1716 13.5156 22.4978C14.3033 22.8241 15.1475 22.992 16 22.992C17.7218 22.992 19.3731 22.308 20.5905 21.0905C21.808 19.8731 22.492 18.2218 22.492 16.5C22.492 14.7782 21.808 13.127 20.5905 11.9095C19.3731 10.692 17.7218 10.008 16 10.008ZM11.508 16.5C11.508 15.3086 11.9813 14.1661 12.8237 13.3237C13.6661 12.4813 14.8086 12.008 16 12.008C17.1914 12.008 18.3339 12.4813 19.1763 13.3237C20.0187 14.1661 20.492 15.3086 20.492 16.5C20.492 17.6914 20.0187 18.8339 19.1763 19.6763C18.3339 20.5187 17.1914 20.992 16 20.992C14.8086 20.992 13.6661 20.5187 12.8237 19.6763C11.9813 18.8339 11.508 17.6914 11.508 16.5Z" fill="#FFFEFE" style="fill:#FFFEFE;fill:color(display-p3 1.0000 0.9958 0.9958);fill-opacity:1;"/>
        <path d="M19.5915 3.18622C18.5375 -0.393779 13.4615 -0.393779 12.4075 3.18622L12.2195 3.82422C12.1459 4.07412 12.0173 4.30439 11.8431 4.49814C11.669 4.69188 11.4536 4.8442 11.213 4.94392C10.9723 5.04365 10.7123 5.08825 10.4522 5.07446C10.192 5.06066 9.93827 4.98883 9.70949 4.86422L9.12549 4.54422C5.84549 2.76022 2.25949 6.34822 4.04549 9.62622L4.36349 10.2102C4.4881 10.439 4.55993 10.6928 4.57372 10.9529C4.58751 11.2131 4.54291 11.473 4.44319 11.7137C4.34347 11.9544 4.19115 12.1697 3.9974 12.3439C3.80366 12.518 3.57339 12.6466 3.32349 12.7202L2.68549 12.9082C-0.894512 13.9622 -0.894512 19.0382 2.68549 20.0922L3.32349 20.2802C3.57339 20.3538 3.80366 20.4824 3.9974 20.6566C4.19115 20.8307 4.34347 21.0461 4.44319 21.2867C4.54291 21.5274 4.58751 21.7874 4.57372 22.0475C4.55993 22.3077 4.4881 22.5614 4.36349 22.7902L4.04349 23.3742C2.25949 26.6542 5.84549 30.2422 9.12549 28.4542L9.70949 28.1362C9.93827 28.0116 10.192 27.9398 10.4522 27.926C10.7123 27.9122 10.9723 27.9568 11.213 28.0565C11.4536 28.1562 11.669 28.3085 11.8431 28.5023C12.0173 28.696 12.1459 28.9263 12.2195 29.1762L12.4075 29.8142C13.4615 33.3942 18.5375 33.3942 19.5915 29.8142L19.7795 29.1762C19.8531 28.9263 19.9817 28.696 20.1559 28.5023C20.33 28.3085 20.5453 28.1562 20.786 28.0565C21.0267 27.9568 21.2866 27.9122 21.5468 27.926C21.8069 27.9398 22.0607 28.0116 22.2895 28.1362L22.8735 28.4562C26.1535 30.2422 29.7415 26.6522 27.9535 23.3742L27.6355 22.7902C27.5109 22.5614 27.439 22.3077 27.4252 22.0475C27.4115 21.7874 27.4561 21.5274 27.5558 21.2867C27.6555 21.0461 27.8078 20.8307 28.0016 20.6566C28.1953 20.4824 28.4256 20.3538 28.6755 20.2802L29.3135 20.0922C32.8935 19.0382 32.8935 13.9622 29.3135 12.9082L28.6755 12.7202C28.4256 12.6466 28.1953 12.518 28.0016 12.3439C27.8078 12.1697 27.6555 11.9544 27.5558 11.7137C27.4561 11.473 27.4115 11.2131 27.4252 10.9529C27.439 10.6928 27.5109 10.439 27.6355 10.2102L27.9555 9.62622C29.7415 6.34622 26.1515 2.76022 22.8735 4.54622L22.2895 4.86422C22.0607 4.98883 21.8069 5.06066 21.5468 5.07446C21.2866 5.08825 21.0267 5.04365 20.786 4.94392C20.5453 4.8442 20.33 4.69188 20.1559 4.49814C19.9817 4.30439 19.8531 4.07412 19.7795 3.82422L19.5915 3.18622ZM14.3255 3.75222C14.8175 2.08222 17.1815 2.08222 17.6735 3.75222L17.8615 4.39022C18.0195 4.92639 18.2956 5.42039 18.6693 5.83602C19.0431 6.25164 19.5052 6.57835 20.0216 6.79218C20.5381 7.00601 21.0959 7.10155 21.6541 7.0718C22.2122 7.04204 22.7567 6.88775 23.2475 6.62022L23.8295 6.30022C25.3575 5.47022 27.0295 7.14022 26.1975 8.67022L25.8795 9.25422C25.6124 9.74507 25.4584 10.2895 25.429 10.8475C25.3996 11.4056 25.4954 11.9632 25.7094 12.4794C25.9234 12.9956 26.2502 13.4574 26.6658 13.831C27.0815 14.2045 27.5754 14.4803 28.1115 14.6382L28.7475 14.8262C30.4175 15.3182 30.4175 17.6822 28.7475 18.1742L28.1095 18.3622C27.5733 18.5203 27.0793 18.7963 26.6637 19.1701C26.2481 19.5438 25.9214 20.0059 25.7075 20.5224C25.4937 21.0388 25.3982 21.5966 25.4279 22.1548C25.4577 22.713 25.612 23.2574 25.8795 23.7482L26.1995 24.3302C27.0295 25.8582 25.3595 27.5302 23.8295 26.6982L23.2475 26.3802C22.7566 26.1127 22.212 25.9585 21.6537 25.9289C21.0954 25.8992 20.5375 25.9949 20.021 26.209C19.5046 26.423 19.0425 26.75 18.6688 27.1658C18.2952 27.5816 18.0193 28.0759 17.8615 28.6122L17.6735 29.2482C17.1815 30.9182 14.8175 30.9182 14.3255 29.2482L14.1375 28.6102C13.9794 28.0743 13.7034 27.5806 13.3297 27.1652C12.9561 26.7498 12.4943 26.4232 11.9781 26.2094C11.4619 25.9956 10.9044 25.9 10.3464 25.9295C9.78848 25.9591 9.24421 26.1131 8.75349 26.3802L8.16949 26.7002C6.64149 27.5302 4.96949 25.8602 5.80149 24.3302L6.11949 23.7482C6.38739 23.2573 6.54199 22.7127 6.57194 22.1543C6.60189 21.5959 6.50644 21.0378 6.29257 20.5211C6.07871 20.0044 5.75188 19.5421 5.33604 19.1682C4.92021 18.7943 4.42594 18.5182 3.88949 18.3602L3.25149 18.1722C1.58149 17.6802 1.58149 15.3162 3.25149 14.8242L3.88949 14.6362C4.4251 14.478 4.91857 14.2021 5.33377 13.8286C5.74898 13.4551 6.07542 12.9935 6.28919 12.4775C6.50297 11.9616 6.59868 11.4044 6.56932 10.8467C6.53996 10.2889 6.38626 9.74486 6.11949 9.25422L5.79949 8.67022C4.96949 7.14222 6.63949 5.47022 8.16949 6.30222L8.75349 6.62022C9.24421 6.88737 9.78848 7.04137 10.3464 7.07093C10.9044 7.10048 11.4619 7.00486 11.9781 6.79105C12.4943 6.57725 12.9561 6.25068 13.3297 5.83526C13.7034 5.41985 13.9794 4.92611 14.1375 4.39022L14.3255 3.75222Z" fill="#FFFEFE" style="fill:#FFFEFE;fill:color(display-p3 1.0000 0.9958 0.9958);fill-opacity:1;"/>
    </g>
    <defs>
        <clipPath id="clip0_252_13026">
            <rect width="32" height="32" fill="white" style="fill:white;fill-opacity:1;" transform="translate(0 0.5)"/>
        </clipPath>
    </defs>
</svg>
