<svg width="32" height="33" viewBox="0 0 32 33" fill="none" xmlns="http://www.w3.org/2000/svg">
    <g clip-path="url(#clip0_252_13191)">
        <path fill-rule="evenodd" clip-rule="evenodd" d="M0 0.5H2V30.5H32V32.5H0V0.5ZM29.634 6.726C29.7357 6.80922 29.82 6.91166 29.8821 7.02748C29.9442 7.1433 29.9828 7.27022 29.9958 7.40098C30.0088 7.53175 29.9959 7.66379 29.9579 7.78957C29.9198 7.91534 29.8573 8.03238 29.774 8.134L20.774 19.134C20.6855 19.242 20.5755 19.3302 20.4508 19.3931C20.3262 19.456 20.1898 19.492 20.0504 19.499C19.911 19.506 19.7717 19.4837 19.6414 19.4336C19.5111 19.3834 19.3928 19.3066 19.294 19.208L14.12 14.034L6.808 24.088C6.64805 24.2914 6.41548 24.4249 6.15917 24.4604C5.90286 24.4959 5.64276 24.4307 5.43354 24.2784C5.22432 24.1261 5.08226 23.8987 5.03722 23.6439C4.99218 23.3891 5.04766 23.1268 5.192 22.912L13.192 11.912C13.2769 11.795 13.3862 11.6979 13.5123 11.6272C13.6383 11.5565 13.7782 11.514 13.9223 11.5026C14.0664 11.4912 14.2113 11.5111 14.3469 11.5611C14.4826 11.6111 14.6057 11.6898 14.708 11.792L19.926 17.012L28.226 6.866C28.3092 6.7643 28.4117 6.68 28.5275 6.61791C28.6433 6.55583 28.7702 6.51718 28.901 6.50418C29.0317 6.49118 29.1638 6.50408 29.2896 6.54214C29.4153 6.5802 29.5324 6.64268 29.634 6.726Z" fill="#FFFEFE" style="fill:#FFFEFE;fill:color(display-p3 1.0000 0.9958 0.9958);fill-opacity:1;"/>
    </g>
    <defs>
        <clipPath id="clip0_252_13191">
            <rect width="32" height="32" fill="white" style="fill:white;fill-opacity:1;" transform="translate(0 0.5)"/>
        </clipPath>
    </defs>
</svg>
